<svg width="301" height="217" viewBox="0 0 301 217" fill="none" xmlns="http://www.w3.org/2000/svg">
<rect x="106.5" y="37" width="87" height="87" rx="43.5" fill="url(#paint0_linear_1272_258)"/>
<path d="M120.787 101.511L134.378 87.9208C132.012 84.0892 130.581 79.6197 130.581 74.7867C130.581 60.9064 141.833 49.6553 155.713 49.6553C169.594 49.6553 180.846 60.9064 180.846 74.7867C180.846 88.667 169.594 99.9181 155.713 99.9181C150.88 99.9181 146.411 98.4876 142.583 96.1252L128.988 109.716C127.894 110.773 126.428 111.359 124.906 111.346C123.385 111.333 121.929 110.723 120.853 109.646C119.777 108.57 119.167 107.114 119.155 105.592C119.143 104.07 119.729 102.605 120.787 101.511ZM155.713 92.1854C165.322 92.1854 173.113 84.3947 173.113 74.7867C173.113 65.1788 165.322 57.388 155.713 57.388C146.105 57.388 138.314 65.1788 138.314 74.7867C138.314 84.3947 146.105 92.1854 155.713 92.1854Z" fill="url(#paint1_linear_1272_258)"/>
<path d="M76.8534 188H69.8204L80.5366 156.958H88.9944L99.6954 188H92.6624L84.8867 164.051H84.6442L76.8534 188ZM76.4138 175.798H93.0262V180.922H76.4138V175.798ZM103.432 188V156.958H115.679C118.023 156.958 120.024 157.377 121.681 158.216C123.348 159.045 124.617 160.222 125.486 161.748C126.365 163.263 126.804 165.047 126.804 167.098C126.804 169.159 126.36 170.933 125.47 172.418C124.581 173.894 123.293 175.025 121.605 175.814C119.928 176.602 117.897 176.996 115.512 176.996H107.312V171.721H114.451C115.704 171.721 116.745 171.549 117.573 171.206C118.402 170.862 119.018 170.347 119.423 169.66C119.837 168.973 120.044 168.119 120.044 167.098C120.044 166.067 119.837 165.198 119.423 164.491C119.018 163.784 118.397 163.248 117.558 162.884C116.73 162.51 115.684 162.324 114.421 162.324H109.995V188H103.432ZM120.196 173.873L127.911 188H120.666L113.117 173.873H120.196ZM136.793 188H129.76L140.476 156.958H148.934L159.635 188H152.602L144.826 164.051H144.584L136.793 188ZM136.353 175.798H152.966V180.922H136.353V175.798ZM163.371 156.958H171.465L180.014 177.814H180.378L188.926 156.958H197.02V188H190.654V167.795H190.397L182.363 187.848H178.028L169.995 167.72H169.737V188H163.371V156.958ZM207.778 188H200.745L211.461 156.958H219.919L230.62 188H223.587L215.812 164.051H215.569L207.778 188ZM207.339 175.798H223.951V180.922H207.339V175.798Z" fill="url(#paint2_linear_1272_258)"/>
<defs>
<linearGradient id="paint0_linear_1272_258" x1="150" y1="124" x2="150" y2="37" gradientUnits="userSpaceOnUse">
<stop stop-color="#AD7F50"/>
<stop offset="1" stop-color="#FBCF8C"/>
</linearGradient>
<linearGradient id="paint1_linear_1272_258" x1="150" y1="111.346" x2="150" y2="49.6553" gradientUnits="userSpaceOnUse">
<stop stop-color="#171F03"/>
<stop offset="1" stop-color="#222907"/>
</linearGradient>
<linearGradient id="paint2_linear_1272_258" x1="150.232" y1="187.878" x2="150.232" y2="158" gradientUnits="userSpaceOnUse">
<stop stop-color="#AD7F50"/>
<stop offset="1" stop-color="#FBCF8C"/>
</linearGradient>
</defs>
</svg>
