<svg width="86" height="62" viewBox="0 0 86 62" fill="none" xmlns="http://www.w3.org/2000/svg">
<rect x="27" y="7" width="32.1221" height="32.1221" rx="16.061" fill="url(#paint0_linear_1268_13)"/>
<path d="M32.275 30.819L37.293 25.8012C36.4193 24.3865 35.8911 22.7363 35.8911 20.9519C35.8911 15.827 40.0454 11.6729 45.1704 11.6729C50.2954 11.6729 54.4497 15.827 54.4497 20.9519C54.4497 26.0767 50.2954 30.2309 45.1704 30.2309C43.3859 30.2309 41.7356 29.7027 40.3223 28.8305L35.3029 33.8483C34.899 34.2388 34.3577 34.455 33.7958 34.4502C33.2339 34.4454 32.6965 34.2201 32.2992 33.8226C31.902 33.4252 31.6768 32.8877 31.6723 32.3258C31.6678 31.7639 31.8842 31.2228 32.275 30.819ZM45.1704 27.3758C48.718 27.3758 51.5945 24.4993 51.5945 20.9519C51.5945 17.4044 48.718 14.5279 45.1704 14.5279C41.6229 14.5279 38.7463 17.4044 38.7463 20.9519C38.7463 24.4993 41.6229 27.3758 45.1704 27.3758Z" fill="url(#paint1_linear_1268_13)"/>
<path d="M21.8153 57H19.8058L22.8676 48.1308H25.2841L28.3415 57H26.3321L24.1105 50.1576H24.0412L21.8153 57ZM21.6897 53.5138H26.4361V54.9776H21.6897V53.5138ZM29.4091 57V48.1308H32.9082C33.578 48.1308 34.1497 48.2506 34.6232 48.4903C35.0995 48.727 35.4619 49.0634 35.7102 49.4993C35.9613 49.9324 36.0869 50.4419 36.0869 51.028C36.0869 51.617 35.9599 52.1237 35.7058 52.5481C35.4518 52.9696 35.0837 53.293 34.6015 53.5182C34.1222 53.7433 33.5419 53.8559 32.8606 53.8559H30.5177V52.3489H32.5574C32.9154 52.3489 33.2128 52.2998 33.4496 52.2016C33.6863 52.1035 33.8624 51.9562 33.9779 51.7599C34.0963 51.5636 34.1554 51.3196 34.1554 51.028C34.1554 50.7335 34.0963 50.4853 33.9779 50.2832C33.8624 50.0811 33.6849 49.928 33.4452 49.8241C33.2085 49.7173 32.9097 49.6639 32.5488 49.6639H31.2842V57H29.4091ZM34.1988 52.9638L36.4031 57H34.333L32.1763 52.9638H34.1988ZM38.9408 57H36.9314L39.9932 48.1308H42.4097L45.4671 57H43.4577L41.2361 50.1576H41.1668L38.9408 57ZM38.8152 53.5138H43.5616V54.9776H38.8152V53.5138ZM46.5346 48.1308H48.8472L51.2897 54.0898H51.3936L53.8361 48.1308H56.1487V57H54.3298V51.2272H54.2562L51.9609 56.9567H50.7224L48.4271 51.2056H48.3535V57H46.5346V48.1308ZM59.2224 57H57.2129L60.2747 48.1308H62.6912L65.7486 57H63.7392L61.5176 50.1576H61.4483L59.2224 57ZM59.0968 53.5138H63.8432V54.9776H59.0968V53.5138Z" fill="url(#paint2_linear_1268_13)"/>
<defs>
<linearGradient id="paint0_linear_1268_13" x1="43.061" y1="39.1221" x2="43.061" y2="7" gradientUnits="userSpaceOnUse">
<stop stop-color="#AD7F50"/>
<stop offset="1" stop-color="#FBCF8C"/>
</linearGradient>
<linearGradient id="paint1_linear_1268_13" x1="43.061" y1="34.4503" x2="43.061" y2="11.6729" gradientUnits="userSpaceOnUse">
<stop stop-color="#171F03"/>
<stop offset="1" stop-color="#222907"/>
</linearGradient>
<linearGradient id="paint2_linear_1268_13" x1="42.7805" y1="56.5366" x2="42.7805" y2="48" gradientUnits="userSpaceOnUse">
<stop stop-color="#AD7F50"/>
<stop offset="1" stop-color="#FBCF8C"/>
</linearGradient>
</defs>
</svg>
