<svg width="86" height="62" viewBox="0 0 86 62" fill="none" xmlns="http://www.w3.org/2000/svg">
<rect x="27" y="7" width="32.1221" height="32.1221" rx="16.061" fill="url(#paint0_linear_1268_10)"/>
<rect x="32.8403" y="12.8408" width="20.4413" height="20.4413" rx="10.2207" fill="url(#paint1_linear_1268_10)"/>
<rect x="31.0884" y="11.0879" width="23.9455" height="23.9455" rx="11.9728" stroke="url(#paint2_linear_1268_10)" stroke-width="1.16808"/>
<path d="M31.8321 51.2359H29.9353C29.9006 50.9905 29.8299 50.7725 29.7231 50.582C29.6163 50.3885 29.4791 50.224 29.3117 50.0883C29.1442 49.9526 28.9508 49.8486 28.7314 49.7765C28.5148 49.7043 28.2795 49.6682 28.0255 49.6682C27.5664 49.6682 27.1665 49.7822 26.8259 50.0103C26.4852 50.2355 26.221 50.5646 26.0334 50.9977C25.8457 51.4279 25.7519 51.9505 25.7519 52.5654C25.7519 53.1977 25.8457 53.7289 26.0334 54.1591C26.2239 54.5893 26.4895 54.9141 26.8302 55.1335C27.1709 55.3529 27.565 55.4626 28.0125 55.4626C28.2636 55.4626 28.4961 55.4294 28.7097 55.363C28.9262 55.2966 29.1182 55.1999 29.2857 55.0729C29.4531 54.9429 29.5917 54.7856 29.7014 54.6008C29.814 54.416 29.892 54.2053 29.9353 53.9685L31.8321 53.9772C31.783 54.3843 31.6603 54.7769 31.464 55.1551C31.2706 55.5305 31.0093 55.8668 30.6802 56.1642C30.3539 56.4587 29.9642 56.6925 29.5109 56.8657C29.0605 57.0361 28.5509 57.1213 27.9822 57.1213C27.1911 57.1213 26.4837 56.9423 25.8601 56.5843C25.2394 56.2263 24.7486 55.708 24.3877 55.0296C24.0297 54.3511 23.8507 53.5297 23.8507 52.5654C23.8507 51.5982 24.0326 50.7754 24.3964 50.0969C24.7601 49.4185 25.2538 48.9017 25.8775 48.5466C26.5011 48.1886 27.2026 48.0096 27.9822 48.0096C28.4961 48.0096 28.9724 48.0817 29.4113 48.2261C29.853 48.3704 30.2442 48.5812 30.5849 48.8584C30.9256 49.1326 31.2027 49.469 31.4164 49.8674C31.6329 50.2658 31.7715 50.722 31.8321 51.2359ZM34.5388 57H32.5293L35.5911 48.1308H38.0076L41.0651 57H39.0556L36.834 50.1576H36.7647L34.5388 57ZM34.4132 53.5138H39.1596V54.9776H34.4132V53.5138ZM49.551 48.1308V57H47.9313L44.0727 51.4178H44.0077V57H42.1326V48.1308H43.7782L47.6065 53.7087H47.6845V48.1308H49.551ZM51.1003 57V48.1308H52.9754V55.454H56.7778V57H51.1003ZM59.8947 48.1308V57H58.0196V48.1308H59.8947Z" fill="url(#paint3_linear_1268_10)"/>
<defs>
<linearGradient id="paint0_linear_1268_10" x1="43.061" y1="39.1221" x2="43.061" y2="7" gradientUnits="userSpaceOnUse">
<stop stop-color="#AD7F50"/>
<stop offset="1" stop-color="#FBCF8C"/>
</linearGradient>
<linearGradient id="paint1_linear_1268_10" x1="43.061" y1="33.2821" x2="43.061" y2="12.8408" gradientUnits="userSpaceOnUse">
<stop stop-color="#171F03"/>
<stop offset="1" stop-color="#222907"/>
</linearGradient>
<linearGradient id="paint2_linear_1268_10" x1="43.0612" y1="35.6175" x2="43.0612" y2="10.5039" gradientUnits="userSpaceOnUse">
<stop stop-color="#171F03"/>
<stop offset="1" stop-color="#222907"/>
</linearGradient>
<linearGradient id="paint3_linear_1268_10" x1="41.9512" y1="56.5366" x2="41.9512" y2="48" gradientUnits="userSpaceOnUse">
<stop stop-color="#AD7F50"/>
<stop offset="1" stop-color="#FBCF8C"/>
</linearGradient>
</defs>
</svg>
