<svg width="301" height="217" viewBox="0 0 301 217" fill="none" xmlns="http://www.w3.org/2000/svg">
<rect x="107" y="37" width="87" height="87" rx="43.5" fill="url(#paint0_linear_1272_273)"/>
<rect x="122.818" y="52.8193" width="55.3636" height="55.3636" rx="27.6818" fill="url(#paint1_linear_1272_273)"/>
<rect x="118.073" y="48.0721" width="64.8545" height="64.8545" rx="32.4273" stroke="url(#paint2_linear_1272_273)" stroke-width="3.16364"/>
<path d="M111.912 167.826H105.273C105.152 166.967 104.905 166.204 104.531 165.537C104.157 164.86 103.677 164.284 103.091 163.809C102.505 163.334 101.828 162.97 101.06 162.718C100.302 162.465 99.4783 162.339 98.5891 162.339C96.9824 162.339 95.5829 162.738 94.3905 163.536C93.1982 164.324 92.2736 165.476 91.6168 166.992C90.9599 168.498 90.6315 170.327 90.6315 172.479C90.6315 174.692 90.9599 176.551 91.6168 178.057C92.2837 179.562 93.2133 180.699 94.4057 181.467C95.5981 182.235 96.9774 182.619 98.5436 182.619C99.4228 182.619 100.236 182.503 100.984 182.271C101.742 182.038 102.414 181.7 103 181.255C103.586 180.8 104.071 180.25 104.455 179.603C104.849 178.956 105.122 178.218 105.273 177.39L111.912 177.42C111.741 178.845 111.311 180.219 110.624 181.543C109.947 182.857 109.032 184.034 107.881 185.075C106.739 186.105 105.375 186.924 103.788 187.53C102.212 188.126 100.428 188.424 98.4375 188.424C95.6688 188.424 93.1931 187.798 91.0105 186.545C88.8379 185.292 87.1201 183.478 85.857 181.103C84.604 178.729 83.9775 175.854 83.9775 172.479C83.9775 169.094 84.6141 166.214 85.8873 163.839C87.1605 161.465 88.8884 159.656 91.0711 158.413C93.2537 157.16 95.7092 156.533 98.4375 156.533C100.236 156.533 101.904 156.786 103.439 157.291C104.985 157.797 106.355 158.534 107.547 159.504C108.739 160.464 109.71 161.641 110.457 163.036C111.215 164.43 111.7 166.027 111.912 167.826ZM121.386 188H114.353L125.069 156.958H133.527L144.228 188H137.195L129.419 164.051H129.177L121.386 188ZM120.946 175.798H137.559V180.922H120.946V175.798ZM173.928 156.958V188H168.26L154.754 168.462H154.527V188H147.964V156.958H153.724L167.123 176.48H167.396V156.958H173.928ZM179.351 188V156.958H185.914V182.589H199.222V188H179.351ZM210.132 156.958V188H203.568V156.958H210.132Z" fill="url(#paint3_linear_1272_273)"/>
<defs>
<linearGradient id="paint0_linear_1272_273" x1="150.5" y1="124" x2="150.5" y2="37" gradientUnits="userSpaceOnUse">
<stop stop-color="#AD7F50"/>
<stop offset="1" stop-color="#FBCF8C"/>
</linearGradient>
<linearGradient id="paint1_linear_1272_273" x1="150.5" y1="108.183" x2="150.5" y2="52.8193" gradientUnits="userSpaceOnUse">
<stop stop-color="#171F03"/>
<stop offset="1" stop-color="#222907"/>
</linearGradient>
<linearGradient id="paint2_linear_1272_273" x1="150.5" y1="114.508" x2="150.5" y2="46.4902" gradientUnits="userSpaceOnUse">
<stop stop-color="#171F03"/>
<stop offset="1" stop-color="#222907"/>
</linearGradient>
<linearGradient id="paint3_linear_1272_273" x1="147.329" y1="187.878" x2="147.329" y2="158" gradientUnits="userSpaceOnUse">
<stop stop-color="#AD7F50"/>
<stop offset="1" stop-color="#FBCF8C"/>
</linearGradient>
</defs>
</svg>
