<svg width="86" height="62" viewBox="0 0 86 62" fill="none" xmlns="http://www.w3.org/2000/svg">
<rect x="27" y="7" width="32.1221" height="32.1221" rx="16.061" fill="url(#paint0_linear_1268_7)"/>
<path d="M52.1133 12.9365V33.9834L49.8506 33.2783V33.9834L47.5869 33.2783V33.9834L45.3242 33.2783V33.9834L43.0605 33.2783V33.9834L40.7979 33.2783V33.9834L38.5342 33.2783V33.9834L36.2715 33.2783V33.9834L34.0078 33.2783V12.2568L36.2715 12.9365V12.2568L38.5342 12.9365V12.2568L40.7979 12.9365V12.2568L43.0605 12.9365V12.2568L45.3242 12.9365V12.2568L47.5869 12.9365V12.2568L49.8506 12.9365V12.2568L52.1133 12.9365ZM36.7627 27.0566C36.0672 27.0567 35.503 27.6209 35.5029 28.3164C35.5029 29.012 36.0671 29.5761 36.7627 29.5762H49.3574C50.053 29.5762 50.6172 29.012 50.6172 28.3164C50.6171 27.6209 50.053 27.0566 49.3574 27.0566H36.7627ZM36.7627 22.0195C36.0671 22.0196 35.5029 22.5837 35.5029 23.2793C35.5032 23.9746 36.0673 24.538 36.7627 24.5381H49.3574C50.0529 24.5381 50.6169 23.9747 50.6172 23.2793C50.6172 22.5837 50.053 22.0195 49.3574 22.0195H36.7627ZM36.7627 16.9795C36.0673 16.9796 35.5032 17.5429 35.5029 18.2383C35.5029 18.9338 36.0671 19.498 36.7627 19.498H49.3574C50.053 19.498 50.6172 18.9339 50.6172 18.2383C50.6169 17.5429 50.0529 16.9795 49.3574 16.9795H36.7627Z" fill="url(#paint1_linear_1268_7)"/>
<path d="M20.8685 57V48.1308H22.7437V52.0414H22.8606L26.0523 48.1308H28.2999L25.0086 52.102L28.3389 57H26.0956L23.6661 53.3536L22.7437 54.4796V57H20.8685ZM34.7548 48.1308H36.6299V53.8906C36.6299 54.5373 36.4755 55.1032 36.1665 55.5882C35.8605 56.0732 35.4318 56.4515 34.8803 56.7228C34.3289 56.9913 33.6865 57.1256 32.9532 57.1256C32.217 57.1256 31.5732 56.9913 31.0217 56.7228C30.4703 56.4515 30.0416 56.0732 29.7355 55.5882C29.4295 55.1032 29.2765 54.5373 29.2765 53.8906V48.1308H31.1517V53.7304C31.1517 54.0681 31.2253 54.3684 31.3725 54.6311C31.5226 54.8939 31.7334 55.1003 32.0048 55.2504C32.2762 55.4005 32.5923 55.4756 32.9532 55.4756C33.317 55.4756 33.6331 55.4005 33.9016 55.2504C34.173 55.1003 34.3823 54.8939 34.5296 54.6311C34.6797 54.3684 34.7548 54.0681 34.7548 53.7304V48.1308ZM38.1727 57V48.1308H41.6719C42.3446 48.1308 42.9177 48.2593 43.3912 48.5162C43.8646 48.7703 44.2255 49.124 44.4738 49.5773C44.725 50.0276 44.8506 50.5473 44.8506 51.1363C44.8506 51.7253 44.7236 52.2449 44.4695 52.6953C44.2154 53.1457 43.8473 53.4965 43.3652 53.7477C42.8859 53.9989 42.3056 54.1244 41.6243 54.1244H39.394V52.6217H41.3211C41.682 52.6217 41.9794 52.5596 42.2132 52.4355C42.45 52.3085 42.6261 52.1338 42.7416 51.9115C42.8599 51.6863 42.9191 51.4279 42.9191 51.1363C42.9191 50.8418 42.8599 50.5849 42.7416 50.3654C42.6261 50.1431 42.45 49.9713 42.2132 49.8501C41.9765 49.7259 41.6762 49.6639 41.3124 49.6639H40.0479V57H38.1727ZM54.2189 52.5654C54.2189 53.5326 54.0355 54.3554 53.6689 55.0339C53.3051 55.7124 52.8085 56.2306 52.1791 56.5886C51.5526 56.9437 50.8482 57.1213 50.0658 57.1213C49.2776 57.1213 48.5703 56.9423 47.9438 56.5843C47.3173 56.2263 46.8221 55.708 46.4583 55.0296C46.0946 54.3511 45.9127 53.5297 45.9127 52.5654C45.9127 51.5982 46.0946 50.7754 46.4583 50.0969C46.8221 49.4185 47.3173 48.9017 47.9438 48.5466C48.5703 48.1886 49.2776 48.0096 50.0658 48.0096C50.8482 48.0096 51.5526 48.1886 52.1791 48.5466C52.8085 48.9017 53.3051 49.4185 53.6689 50.0969C54.0355 50.7754 54.2189 51.5982 54.2189 52.5654ZM52.3177 52.5654C52.3177 51.9389 52.2239 51.4106 52.0362 50.9804C51.8515 50.5502 51.5902 50.224 51.2524 50.0017C50.9146 49.7794 50.5191 49.6682 50.0658 49.6682C49.6125 49.6682 49.217 49.7794 48.8792 50.0017C48.5414 50.224 48.2787 50.5502 48.091 50.9804C47.9062 51.4106 47.8138 51.9389 47.8138 52.5654C47.8138 53.1919 47.9062 53.7203 48.091 54.1504C48.2787 54.5806 48.5414 54.9069 48.8792 55.1292C49.217 55.3515 49.6125 55.4626 50.0658 55.4626C50.5191 55.4626 50.9146 55.3515 51.2524 55.1292C51.5902 54.9069 51.8515 54.5806 52.0362 54.1504C52.2239 53.7203 52.3177 53.1919 52.3177 52.5654ZM63.0263 48.1308V57H61.4067L57.5481 51.4178H57.4831V57H55.6079V48.1308H57.2536L61.0819 53.7087H61.1598V48.1308H63.0263Z" fill="url(#paint2_linear_1268_7)"/>
<defs>
<linearGradient id="paint0_linear_1268_7" x1="43.061" y1="39.1221" x2="43.061" y2="7" gradientUnits="userSpaceOnUse">
<stop stop-color="#AD7F50"/>
<stop offset="1" stop-color="#FBCF8C"/>
</linearGradient>
<linearGradient id="paint1_linear_1268_7" x1="43.0607" y1="33.9832" x2="43.0607" y2="12.2568" gradientUnits="userSpaceOnUse">
<stop stop-color="#171F03"/>
<stop offset="1" stop-color="#222907"/>
</linearGradient>
<linearGradient id="paint2_linear_1268_7" x1="41.9512" y1="56.5366" x2="41.9512" y2="48" gradientUnits="userSpaceOnUse">
<stop stop-color="#AD7F50"/>
<stop offset="1" stop-color="#FBCF8C"/>
</linearGradient>
</defs>
</svg>
