<svg width="301" height="217" viewBox="0 0 301 217" fill="none" xmlns="http://www.w3.org/2000/svg">
<rect x="107" y="37" width="87" height="87" rx="43.5" fill="url(#paint0_linear_1272_249)"/>
<path d="M175.018 53.0762V110.081L168.889 108.17V110.081L162.759 108.17V110.081L156.629 108.17V110.081L150.5 108.17V110.081L144.37 108.17V110.081L138.24 108.17V110.081L132.111 108.17V110.081L125.981 108.17V51.2373L132.111 53.0762V51.2373L138.24 53.0762V51.2373L144.37 53.0762V51.2373L150.5 53.0762V51.2373L156.629 53.0762V51.2373L162.759 53.0762V51.2373L168.889 53.0762V51.2373L175.018 53.0762ZM133.441 91.3213C131.558 91.3215 130.03 92.8488 130.03 94.7324C130.03 96.6162 131.558 98.1433 133.441 98.1436H167.554C169.438 98.1436 170.966 96.6164 170.966 94.7324C170.966 92.8486 169.438 91.3213 167.554 91.3213H133.441ZM133.441 77.6787C131.558 77.6789 130.03 79.2062 130.03 81.0898C130.03 82.9737 131.558 84.5007 133.441 84.501H167.554C169.438 84.501 170.966 82.9738 170.966 81.0898C170.966 79.206 169.438 77.6787 167.554 77.6787H133.441ZM133.441 64.0283C131.558 64.0286 130.03 65.5556 130.03 67.4395C130.03 69.3232 131.558 70.8503 133.441 70.8506H167.554C169.438 70.8506 170.966 69.3233 170.966 67.4395C170.966 65.5555 169.438 64.0283 167.554 64.0283H133.441Z" fill="url(#paint1_linear_1272_249)"/>
<path d="M73.5398 188V156.958H80.1029V170.645H80.5121L91.6831 156.958H99.5497L88.0302 170.857L99.6861 188H91.8346L83.3314 175.238L80.1029 179.178V188H73.5398ZM122.142 156.958H128.705V177.117C128.705 179.381 128.164 181.361 127.083 183.059C126.012 184.756 124.511 186.08 122.581 187.03C120.651 187.97 118.403 188.44 115.836 188.44C113.259 188.44 111.006 187.97 109.076 187.03C107.146 186.08 105.645 184.756 104.574 183.059C103.503 181.361 102.968 179.381 102.968 177.117V156.958H109.531V176.556C109.531 177.739 109.788 178.789 110.304 179.709C110.829 180.629 111.567 181.351 112.517 181.876C113.467 182.402 114.573 182.665 115.836 182.665C117.109 182.665 118.216 182.402 119.156 181.876C120.106 181.351 120.838 180.629 121.353 179.709C121.879 178.789 122.142 177.739 122.142 176.556V156.958ZM134.105 188V156.958H146.352C148.706 156.958 150.712 157.408 152.369 158.307C154.026 159.196 155.289 160.434 156.158 162.02C157.038 163.597 157.477 165.416 157.477 167.477C157.477 169.538 157.032 171.357 156.143 172.934C155.254 174.51 153.966 175.738 152.278 176.617C150.601 177.496 148.57 177.936 146.185 177.936H138.379V172.676H145.124C146.387 172.676 147.428 172.459 148.246 172.024C149.075 171.58 149.691 170.968 150.095 170.19C150.51 169.402 150.717 168.498 150.717 167.477C150.717 166.446 150.51 165.547 150.095 164.779C149.691 164.001 149.075 163.4 148.246 162.975C147.418 162.541 146.367 162.324 145.094 162.324H140.668V188H134.105ZM190.266 172.479C190.266 175.864 189.624 178.744 188.341 181.119C187.068 183.493 185.33 185.307 183.127 186.56C180.934 187.803 178.469 188.424 175.73 188.424C172.972 188.424 170.496 187.798 168.303 186.545C166.11 185.292 164.377 183.478 163.104 181.103C161.831 178.729 161.194 175.854 161.194 172.479C161.194 169.094 161.831 166.214 163.104 163.839C164.377 161.465 166.11 159.656 168.303 158.413C170.496 157.16 172.972 156.533 175.73 156.533C178.469 156.533 180.934 157.16 183.127 158.413C185.33 159.656 187.068 161.465 188.341 163.839C189.624 166.214 190.266 169.094 190.266 172.479ZM183.612 172.479C183.612 170.286 183.284 168.437 182.627 166.931C181.98 165.426 181.066 164.284 179.883 163.506C178.701 162.728 177.317 162.339 175.73 162.339C174.144 162.339 172.759 162.728 171.577 163.506C170.395 164.284 169.475 165.426 168.819 166.931C168.172 168.437 167.848 170.286 167.848 172.479C167.848 174.672 168.172 176.521 168.819 178.027C169.475 179.532 170.395 180.674 171.577 181.452C172.759 182.23 174.144 182.619 175.73 182.619C177.317 182.619 178.701 182.23 179.883 181.452C181.066 180.674 181.98 179.532 182.627 178.027C183.284 176.521 183.612 174.672 183.612 172.479ZM221.092 156.958V188H215.423L201.918 168.462H201.691V188H195.128V156.958H200.888L214.287 176.48H214.559V156.958H221.092Z" fill="url(#paint2_linear_1272_249)"/>
<defs>
<linearGradient id="paint0_linear_1272_249" x1="150.5" y1="124" x2="150.5" y2="37" gradientUnits="userSpaceOnUse">
<stop stop-color="#AD7F50"/>
<stop offset="1" stop-color="#FBCF8C"/>
</linearGradient>
<linearGradient id="paint1_linear_1272_249" x1="150.5" y1="110.081" x2="150.5" y2="51.2373" gradientUnits="userSpaceOnUse">
<stop stop-color="#171F03"/>
<stop offset="1" stop-color="#222907"/>
</linearGradient>
<linearGradient id="paint2_linear_1272_249" x1="147.329" y1="187.878" x2="147.329" y2="158" gradientUnits="userSpaceOnUse">
<stop stop-color="#AD7F50"/>
<stop offset="1" stop-color="#FBCF8C"/>
</linearGradient>
</defs>
</svg>
