<svg width="86" height="62" viewBox="0 0 86 62" fill="none" xmlns="http://www.w3.org/2000/svg">
<path d="M13.2831 50.121C13.2484 49.7717 13.0997 49.5003 12.837 49.3069C12.5743 49.1134 12.2177 49.0167 11.7673 49.0167C11.4613 49.0167 11.2029 49.06 10.9921 49.1466C10.7814 49.2304 10.6197 49.3473 10.5071 49.4974C10.3974 49.6475 10.3425 49.8179 10.3425 50.0084C10.3368 50.1672 10.37 50.3058 10.4421 50.4242C10.5172 50.5425 10.6197 50.645 10.7496 50.7317C10.8795 50.8154 11.0297 50.889 11.2 50.9525C11.3703 51.0131 11.5522 51.0651 11.7457 51.1084L12.5425 51.299C12.9294 51.3856 13.2845 51.5011 13.6079 51.6454C13.9312 51.7898 14.2113 51.9673 14.448 52.1781C14.6847 52.3888 14.8681 52.6371 14.998 52.923C15.1308 53.2088 15.1986 53.5365 15.2015 53.906C15.1986 54.4488 15.0601 54.9194 14.7858 55.3178C14.5144 55.7133 14.1218 56.0208 13.6079 56.2402C13.0968 56.4568 12.4804 56.565 11.7587 56.565C11.0427 56.565 10.419 56.4553 9.88782 56.2359C9.35948 56.0165 8.94662 55.6917 8.64925 55.2615C8.35477 54.8284 8.20031 54.2929 8.18587 53.6548H10.0004C10.0206 53.9522 10.1058 54.2005 10.2559 54.3997C10.4089 54.596 10.6125 54.7447 10.8665 54.8458C11.1235 54.9439 11.4137 54.993 11.737 54.993C12.0546 54.993 12.3303 54.9468 12.5642 54.8544C12.8009 54.762 12.9842 54.6336 13.1142 54.469C13.2441 54.3044 13.309 54.1153 13.309 53.9017C13.309 53.7025 13.2499 53.535 13.1315 53.3993C13.016 53.2636 12.8457 53.1482 12.6205 53.0529C12.3982 52.9576 12.1253 52.871 11.802 52.793L10.8362 52.5505C10.0885 52.3686 9.49806 52.0843 9.065 51.6974C8.63193 51.3105 8.41684 50.7894 8.41973 50.134C8.41684 49.597 8.55975 49.1279 8.84846 48.7266C9.14006 48.3253 9.53992 48.012 10.0481 47.7868C10.5562 47.5616 11.1336 47.449 11.7803 47.449C12.4386 47.449 13.0131 47.5616 13.5039 47.7868C13.9976 48.012 14.3816 48.3253 14.6559 48.7266C14.9301 49.1279 15.0716 49.5927 15.0803 50.121H13.2831ZM16.4628 56.4395V47.5703H18.338V54.8934H22.1403V56.4395H16.4628ZM31.1871 52.0049C31.1871 52.972 31.0037 53.7949 30.6371 54.4733C30.2733 55.1518 29.7767 55.67 29.1473 56.028C28.5208 56.3832 27.8164 56.5607 27.034 56.5607C26.2458 56.5607 25.5384 56.3817 24.9119 56.0237C24.2854 55.6657 23.7903 55.1475 23.4265 54.469C23.0628 53.7905 22.8809 52.9692 22.8809 52.0049C22.8809 51.0377 23.0628 50.2149 23.4265 49.5364C23.7903 48.8579 24.2854 48.3411 24.9119 47.986C25.5384 47.628 26.2458 47.449 27.034 47.449C27.8164 47.449 28.5208 47.628 29.1473 47.986C29.7767 48.3411 30.2733 48.8579 30.6371 49.5364C31.0037 50.2149 31.1871 51.0377 31.1871 52.0049ZM29.2859 52.0049C29.2859 51.3784 29.1921 50.85 29.0044 50.4198C28.8196 49.9897 28.5584 49.6634 28.2206 49.4411C27.8828 49.2188 27.4872 49.1077 27.034 49.1077C26.5807 49.1077 26.1852 49.2188 25.8474 49.4411C25.5096 49.6634 25.2468 49.9897 25.0592 50.4198C24.8744 50.85 24.782 51.3784 24.782 52.0049C24.782 52.6314 24.8744 53.1597 25.0592 53.5899C25.2468 54.0201 25.5096 54.3463 25.8474 54.5686C26.1852 54.7909 26.5807 54.9021 27.034 54.9021C27.4872 54.9021 27.8828 54.7909 28.2206 54.5686C28.5584 54.3463 28.8196 54.0201 29.0044 53.5899C29.1921 53.1597 29.2859 52.6314 29.2859 52.0049ZM31.8334 49.1163V47.5703H39.1176V49.1163H36.4023V56.4395H34.5487V49.1163H31.8334ZM51.29 52.0049C51.29 52.972 51.1066 53.7949 50.74 54.4733C50.3762 55.1518 49.8796 55.67 49.2502 56.028C48.6237 56.3832 47.9193 56.5607 47.1369 56.5607C46.3487 56.5607 45.6413 56.3817 45.0148 56.0237C44.3883 55.6657 43.8932 55.1475 43.5294 54.469C43.1656 53.7905 42.9838 52.9692 42.9838 52.0049C42.9838 51.0377 43.1656 50.2149 43.5294 49.5364C43.8932 48.8579 44.3883 48.3411 45.0148 47.986C45.6413 47.628 46.3487 47.449 47.1369 47.449C47.9193 47.449 48.6237 47.628 49.2502 47.986C49.8796 48.3411 50.3762 48.8579 50.74 49.5364C51.1066 50.2149 51.29 51.0377 51.29 52.0049ZM49.3888 52.0049C49.3888 51.3784 49.295 50.85 49.1073 50.4198C48.9225 49.9897 48.6612 49.6634 48.3235 49.4411C47.9857 49.2188 47.5901 49.1077 47.1369 49.1077C46.6836 49.1077 46.2881 49.2188 45.9503 49.4411C45.6125 49.6634 45.3497 49.9897 45.1621 50.4198C44.9773 50.85 44.8849 51.3784 44.8849 52.0049C44.8849 52.6314 44.9773 53.1597 45.1621 53.5899C45.3497 54.0201 45.6125 54.3463 45.9503 54.5686C46.2881 54.7909 46.6836 54.9021 47.1369 54.9021C47.5901 54.9021 47.9857 54.7909 48.3235 54.5686C48.6612 54.3463 48.9225 54.0201 49.1073 53.5899C49.295 53.1597 49.3888 52.6314 49.3888 52.0049ZM51.6234 47.5703H53.7238L55.7462 51.3899H55.8328L57.8552 47.5703H59.9556L56.7206 53.3041V56.4395H54.8584V53.3041L51.6234 47.5703ZM68.3982 47.5703V56.4395H66.7785L62.9199 50.8572H62.855V56.4395H60.9798V47.5703H62.6254L66.4537 53.1482H66.5317V47.5703H68.3982ZM71.4762 56.4395H69.4668L72.5286 47.5703H74.9451L78.0025 56.4395H75.9931L73.7715 49.597H73.7022L71.4762 56.4395ZM71.3506 52.9533H76.097V54.417H71.3506V52.9533Z" fill="url(#paint0_linear_1268_39)"/>
<path d="M18.1927 8H68.4784C68.4784 8 71.6711 17.606 71.6711 23.9637C71.6711 30.3214 68.4784 39.9274 68.4784 39.9274H18.1927C18.1927 39.9274 15 30.3214 15 23.9637C15 17.606 18.1927 8 18.1927 8Z" fill="url(#paint1_linear_1268_39)"/>
<path d="M33.8721 8.79785C33.8998 9.03995 33.9345 9.33942 33.9727 9.6875C34.0819 10.6838 34.2274 12.0787 34.373 13.6709C34.6649 16.862 34.9551 20.8231 34.9551 23.9639C34.9551 27.1047 34.6649 31.0658 34.373 34.2568C34.2274 35.8492 34.0819 37.244 33.9727 38.2402C33.9345 38.588 33.8997 38.8869 33.8721 39.1289H16.8809C16.8532 38.8869 16.8184 38.588 16.7803 38.2402C16.6711 37.244 16.5255 35.8492 16.3799 34.2568C16.0881 31.0658 15.7979 27.1047 15.7979 23.9639C15.7979 20.8231 16.0881 16.862 16.3799 13.6709C16.5255 12.0787 16.6711 10.6838 16.7803 9.6875C16.8184 9.33942 16.8532 9.03996 16.8809 8.79785H33.8721Z" fill="url(#paint2_linear_1268_39)" stroke="url(#paint3_linear_1268_39)" stroke-width="1.59637"/>
<path d="M49.0166 8.79785C48.9832 9.0427 48.9411 9.34801 48.8945 9.7041C48.7644 10.6997 48.5914 12.0935 48.418 13.6846C48.0701 16.8748 47.7256 20.8303 47.7256 23.9639C47.7256 27.0975 48.0701 31.053 48.418 34.2432C48.5915 35.8344 48.7644 37.228 48.8945 38.2236C48.941 38.5794 48.9832 38.8842 49.0166 39.1289H69.5811C69.6145 38.8842 69.6566 38.5794 69.7031 38.2236C69.8333 37.228 70.0072 35.8344 70.1807 34.2432C70.5285 31.053 70.873 27.0975 70.873 23.9639C70.873 20.8303 70.5285 16.8748 70.1807 13.6846C70.0072 12.0935 69.8332 10.6997 69.7031 9.7041C69.6566 9.34799 69.6145 9.0427 69.5811 8.79785H49.0166Z" fill="url(#paint4_linear_1268_39)" stroke="url(#paint5_linear_1268_39)" stroke-width="1.59637"/>
<path d="M52.1475 8.79785C52.1774 9.04105 52.2144 9.3431 52.2559 9.69434C52.3734 10.6903 52.5298 12.0842 52.6865 13.6758C53.0008 16.8666 53.3125 20.8259 53.3125 23.9639C53.3125 27.1017 53.0007 31.0603 52.6865 34.251C52.5298 35.8428 52.3734 37.2374 52.2559 38.2334C52.2144 38.5843 52.1774 38.8858 52.1475 39.1289H33.7256C33.6956 38.8858 33.6586 38.5844 33.6172 38.2334C33.4996 37.2374 33.3423 35.8428 33.1855 34.251C32.8713 31.0603 32.5596 27.1017 32.5596 23.9639C32.5596 20.8259 32.8713 16.8666 33.1855 13.6758C33.3423 12.0842 33.4996 10.6903 33.6172 9.69434C33.6587 9.34308 33.6956 9.04106 33.7256 8.79785H52.1475Z" fill="url(#paint6_linear_1268_39)" stroke="url(#paint7_linear_1268_39)" stroke-width="1.59637"/>
<path d="M24.8333 31.1186H21.4771L26.7497 19.3222H22.2516L21.8445 21.2188H19.7891V16.7803H30.1655V18.9747L24.8333 31.1186Z" fill="url(#paint8_linear_1268_39)"/>
<path d="M42.7591 32.8307H38.6284L45.1177 18.3122H39.5816L39.0805 20.6464H36.5508V15.1836H49.3217V17.8844L42.7591 32.8307Z" fill="url(#paint9_linear_1268_39)"/>
<path d="M61.5496 31.1186H58.1934L63.466 19.3222H58.9679L58.5608 21.2188H56.5054V16.7803H66.8818V18.9747L61.5496 31.1186Z" fill="url(#paint10_linear_1268_39)"/>
<defs>
<linearGradient id="paint0_linear_1268_39" x1="43" y1="56.4395" x2="43" y2="47.4395" gradientUnits="userSpaceOnUse">
<stop stop-color="#AD7F50"/>
<stop offset="1" stop-color="#FBCF8C"/>
</linearGradient>
<linearGradient id="paint1_linear_1268_39" x1="43.3356" y1="39.9274" x2="43.3356" y2="8" gradientUnits="userSpaceOnUse">
<stop stop-color="#AD7F50"/>
<stop offset="1" stop-color="#FBCF8C"/>
</linearGradient>
<linearGradient id="paint2_linear_1268_39" x1="25.3764" y1="39.9274" x2="25.3764" y2="8" gradientUnits="userSpaceOnUse">
<stop stop-color="#AD7F50"/>
<stop offset="1" stop-color="#FBCF8C"/>
</linearGradient>
<linearGradient id="paint3_linear_1268_39" x1="25.3764" y1="39.9274" x2="25.3764" y2="8" gradientUnits="userSpaceOnUse">
<stop stop-color="#171F03"/>
<stop offset="1" stop-color="#222907"/>
</linearGradient>
<linearGradient id="paint4_linear_1268_39" x1="59.299" y1="39.9274" x2="59.299" y2="8" gradientUnits="userSpaceOnUse">
<stop stop-color="#AD7F50"/>
<stop offset="1" stop-color="#FBCF8C"/>
</linearGradient>
<linearGradient id="paint5_linear_1268_39" x1="59.299" y1="39.9274" x2="59.299" y2="8" gradientUnits="userSpaceOnUse">
<stop stop-color="#171F03"/>
<stop offset="1" stop-color="#222907"/>
</linearGradient>
<linearGradient id="paint6_linear_1268_39" x1="42.9363" y1="39.9274" x2="42.9363" y2="8" gradientUnits="userSpaceOnUse">
<stop stop-color="#AD7F50"/>
<stop offset="1" stop-color="#FBCF8C"/>
</linearGradient>
<linearGradient id="paint7_linear_1268_39" x1="42.9363" y1="39.9274" x2="42.9363" y2="8" gradientUnits="userSpaceOnUse">
<stop stop-color="#171F03"/>
<stop offset="1" stop-color="#222907"/>
</linearGradient>
<linearGradient id="paint8_linear_1268_39" x1="24.9773" y1="31.1186" x2="24.9773" y2="16.7803" gradientUnits="userSpaceOnUse">
<stop stop-color="#171F03"/>
<stop offset="1" stop-color="#222907"/>
</linearGradient>
<linearGradient id="paint9_linear_1268_39" x1="42.9363" y1="32.8307" x2="42.9363" y2="15.1836" gradientUnits="userSpaceOnUse">
<stop stop-color="#171F03"/>
<stop offset="1" stop-color="#222907"/>
</linearGradient>
<linearGradient id="paint10_linear_1268_39" x1="61.6936" y1="31.1186" x2="61.6936" y2="16.7803" gradientUnits="userSpaceOnUse">
<stop stop-color="#171F03"/>
<stop offset="1" stop-color="#222907"/>
</linearGradient>
</defs>
</svg>
