<svg width="301" height="217" viewBox="0 0 301 217" fill="none" xmlns="http://www.w3.org/2000/svg">
<path d="M46.9907 164.923C46.8694 163.7 46.349 162.75 45.4295 162.073C44.5099 161.396 43.262 161.058 41.6856 161.058C40.6145 161.058 39.7101 161.209 38.9725 161.512C38.2348 161.805 37.6689 162.215 37.2749 162.74C36.8909 163.265 36.6989 163.862 36.6989 164.529C36.6787 165.084 36.7949 165.569 37.0475 165.984C37.3102 166.398 37.6689 166.757 38.1237 167.06C38.5784 167.353 39.1038 167.611 39.7 167.833C40.2962 168.045 40.9328 168.227 41.6098 168.378L44.3988 169.045C45.7528 169.349 46.9957 169.753 48.1275 170.258C49.2592 170.763 50.2394 171.385 51.068 172.122C51.8966 172.86 52.5382 173.729 52.993 174.729C53.4578 175.73 53.6953 176.877 53.7054 178.17C53.6953 180.07 53.2102 181.717 52.2503 183.111C51.3004 184.496 49.9261 185.572 48.1275 186.34C46.3389 187.098 44.1815 187.477 41.6553 187.477C39.1493 187.477 36.9667 187.093 35.1074 186.325C33.2582 185.557 31.8132 184.42 30.7724 182.914C29.7417 181.399 29.2011 179.524 29.1506 177.291H35.5015C35.5722 178.332 35.8703 179.201 36.3957 179.898C36.9313 180.585 37.6437 181.106 38.5329 181.459C39.4322 181.803 40.4478 181.975 41.5795 181.975C42.6911 181.975 43.6561 181.813 44.4746 181.49C45.3032 181.166 45.9448 180.717 46.3995 180.141C46.8543 179.565 47.0816 178.903 47.0816 178.155C47.0816 177.458 46.8745 176.872 46.4602 176.397C46.056 175.922 45.4598 175.518 44.6716 175.184C43.8935 174.851 42.9386 174.548 41.8069 174.275L38.4268 173.426C35.8097 172.789 33.7432 171.794 32.2275 170.44C30.7118 169.086 29.9589 167.262 29.969 164.968C29.9589 163.089 30.4591 161.447 31.4696 160.042C32.4902 158.637 33.8897 157.541 35.6682 156.753C37.4466 155.965 39.4676 155.571 41.7311 155.571C44.035 155.571 46.0459 155.965 47.7637 156.753C49.4916 157.541 50.8356 158.637 51.7955 160.042C52.7555 161.447 53.2506 163.073 53.281 164.923H46.9907ZM58.1199 187.037V155.995H64.683V181.626H77.9911V187.037H58.1199ZM109.655 171.516C109.655 174.901 109.013 177.781 107.73 180.156C106.457 182.53 104.718 184.344 102.516 185.597C100.323 186.84 97.8573 187.462 95.1189 187.462C92.3602 187.462 89.8845 186.835 87.6918 185.582C85.499 184.329 83.7661 182.515 82.4928 180.141C81.2196 177.766 80.583 174.891 80.583 171.516C80.583 168.131 81.2196 165.251 82.4928 162.876C83.7661 160.502 85.499 158.693 87.6918 157.45C89.8845 156.197 92.3602 155.571 95.1189 155.571C97.8573 155.571 100.323 156.197 102.516 157.45C104.718 158.693 106.457 160.502 107.73 162.876C109.013 165.251 109.655 168.131 109.655 171.516ZM103.001 171.516C103.001 169.323 102.672 167.474 102.015 165.968C101.369 164.463 100.454 163.321 99.272 162.543C98.0897 161.765 96.7053 161.376 95.1189 161.376C93.5324 161.376 92.148 161.765 90.9658 162.543C89.7835 163.321 88.864 164.463 88.2071 165.968C87.5604 167.474 87.2371 169.323 87.2371 171.516C87.2371 173.709 87.5604 175.558 88.2071 177.064C88.864 178.569 89.7835 179.711 90.9658 180.489C92.148 181.267 93.5324 181.656 95.1189 181.656C96.7053 181.656 98.0897 181.267 99.272 180.489C100.454 179.711 101.369 178.569 102.015 177.064C102.672 175.558 103.001 173.709 103.001 171.516ZM111.917 161.406V155.995H137.411V161.406H127.908V187.037H121.421V161.406H111.917ZM180.015 171.516C180.015 174.901 179.373 177.781 178.09 180.156C176.817 182.53 175.079 184.344 172.876 185.597C170.683 186.84 168.217 187.462 165.479 187.462C162.72 187.462 160.245 186.835 158.052 185.582C155.859 184.329 154.126 182.515 152.853 180.141C151.58 177.766 150.943 174.891 150.943 171.516C150.943 168.131 151.58 165.251 152.853 162.876C154.126 160.502 155.859 158.693 158.052 157.45C160.245 156.197 162.72 155.571 165.479 155.571C168.217 155.571 170.683 156.197 172.876 157.45C175.079 158.693 176.817 160.502 178.09 162.876C179.373 165.251 180.015 168.131 180.015 171.516ZM173.361 171.516C173.361 169.323 173.032 167.474 172.376 165.968C171.729 164.463 170.814 163.321 169.632 162.543C168.45 161.765 167.065 161.376 165.479 161.376C163.893 161.376 162.508 161.765 161.326 162.543C160.144 163.321 159.224 164.463 158.567 165.968C157.921 167.474 157.597 169.323 157.597 171.516C157.597 173.709 157.921 175.558 158.567 177.064C159.224 178.569 160.144 179.711 161.326 180.489C162.508 181.267 163.893 181.656 165.479 181.656C167.065 181.656 168.45 181.267 169.632 180.489C170.814 179.711 171.729 178.569 172.376 177.064C173.032 175.558 173.361 173.709 173.361 171.516ZM181.182 155.995H188.533L195.612 169.364H195.915L202.993 155.995H210.345L199.022 176.063V187.037H192.504V176.063L181.182 155.995ZM239.894 155.995V187.037H234.225L220.72 167.499H220.492V187.037H213.929V155.995H219.689L233.088 175.518H233.361V155.995H239.894ZM250.667 187.037H243.634L254.35 155.995H262.808L273.509 187.037H266.476L258.7 163.089H258.458L250.667 187.037ZM250.227 174.835H266.84V179.959H250.227V174.835Z" fill="url(#paint0_linear_1272_263)"/>
<path d="M82.6473 40.4229H218.842C218.842 40.4229 227.489 66.44 227.489 83.6592C227.489 100.878 218.842 126.896 218.842 126.896H82.6473C82.6473 126.896 74 100.878 74 83.6592C74 66.44 82.6473 40.4229 82.6473 40.4229Z" fill="url(#paint1_linear_1272_263)"/>
<path d="M125.115 42.585C125.19 43.2403 125.283 44.0503 125.387 44.9922C125.683 47.6904 126.076 51.4678 126.471 55.7803C127.261 64.4232 128.046 75.1522 128.046 83.6592C128.046 92.1661 127.261 102.895 126.471 111.538C126.076 115.851 125.683 119.628 125.387 122.326C125.283 123.268 125.19 124.078 125.115 124.733H79.0918C79.0168 124.078 78.9236 123.268 78.8203 122.326C78.5245 119.628 78.1307 115.851 77.7363 111.538C76.9459 102.895 76.1621 92.1661 76.1621 83.6592C76.1621 75.1522 76.9459 64.4232 77.7363 55.7803C78.1307 51.4678 78.5245 47.6904 78.8203 44.9922C78.9236 44.0503 79.0168 43.2403 79.0918 42.585H125.115Z" fill="url(#paint2_linear_1272_263)" stroke="url(#paint3_linear_1272_263)" stroke-width="4.32364"/>
<path d="M166.131 42.585C166.04 43.2479 165.927 44.0733 165.801 45.0371C165.448 47.7336 164.979 51.5086 164.509 55.8184C163.567 64.4589 162.634 75.172 162.634 83.6592C162.634 92.1463 163.567 102.859 164.509 111.5C164.979 115.81 165.448 119.585 165.801 122.281C165.927 123.245 166.04 124.07 166.131 124.733H221.829C221.92 124.07 222.033 123.245 222.159 122.281C222.512 119.585 222.981 115.81 223.451 111.5C224.393 102.859 225.326 92.1463 225.326 83.6592C225.326 75.172 224.393 64.4589 223.451 55.8184C222.981 51.5086 222.512 47.7336 222.159 45.0371C222.033 44.0733 221.92 43.2479 221.829 42.585H166.131Z" fill="url(#paint4_linear_1272_263)" stroke="url(#paint5_linear_1272_263)" stroke-width="4.32364"/>
<path d="M174.61 42.585C174.691 43.2435 174.793 44.0599 174.905 45.0107C175.223 47.7083 175.648 51.4845 176.073 55.7959C176.924 64.4378 177.767 75.1602 177.767 83.6592C177.767 92.1581 176.924 102.881 176.073 111.522C175.648 115.834 175.223 119.61 174.905 122.308C174.793 123.258 174.691 124.075 174.61 124.733H124.717C124.636 124.075 124.535 123.258 124.422 122.308C124.104 119.61 123.679 115.834 123.254 111.522C122.403 102.881 121.56 92.1582 121.56 83.6592C121.56 75.1602 122.403 64.4378 123.254 55.7959C123.679 51.4845 124.104 47.7083 124.422 45.0107C124.535 44.0599 124.636 43.2435 124.717 42.585H174.61Z" fill="url(#paint6_linear_1272_263)" stroke="url(#paint7_linear_1272_263)" stroke-width="4.32364"/>
<path d="M100.633 103.037H91.5426L105.823 71.0878H93.6403L92.5376 76.2245H86.9707V64.2031H115.074V70.1466L100.633 103.037Z" fill="url(#paint8_linear_1272_263)"/>
<path d="M149.183 107.676H137.995L155.571 68.3534H140.577L139.22 74.6754H132.368V59.8799H166.957V67.1949L149.183 107.676Z" fill="url(#paint9_linear_1272_263)"/>
<path d="M200.076 103.037H190.986L205.266 71.0878H193.084L191.981 76.2245H186.414V64.2031H214.518V70.1466L200.076 103.037Z" fill="url(#paint10_linear_1272_263)"/>
<defs>
<linearGradient id="paint0_linear_1272_263" x1="151" y1="187.537" x2="151" y2="156.037" gradientUnits="userSpaceOnUse">
<stop stop-color="#AD7F50"/>
<stop offset="1" stop-color="#FBCF8C"/>
</linearGradient>
<linearGradient id="paint1_linear_1272_263" x1="150.745" y1="126.896" x2="150.745" y2="40.4229" gradientUnits="userSpaceOnUse">
<stop stop-color="#AD7F50"/>
<stop offset="1" stop-color="#FBCF8C"/>
</linearGradient>
<linearGradient id="paint2_linear_1272_263" x1="102.104" y1="126.896" x2="102.104" y2="40.4229" gradientUnits="userSpaceOnUse">
<stop stop-color="#AD7F50"/>
<stop offset="1" stop-color="#FBCF8C"/>
</linearGradient>
<linearGradient id="paint3_linear_1272_263" x1="102.104" y1="126.896" x2="102.104" y2="40.4229" gradientUnits="userSpaceOnUse">
<stop stop-color="#171F03"/>
<stop offset="1" stop-color="#222907"/>
</linearGradient>
<linearGradient id="paint4_linear_1272_263" x1="193.98" y1="126.896" x2="193.98" y2="40.4229" gradientUnits="userSpaceOnUse">
<stop stop-color="#AD7F50"/>
<stop offset="1" stop-color="#FBCF8C"/>
</linearGradient>
<linearGradient id="paint5_linear_1272_263" x1="193.98" y1="126.896" x2="193.98" y2="40.4229" gradientUnits="userSpaceOnUse">
<stop stop-color="#171F03"/>
<stop offset="1" stop-color="#222907"/>
</linearGradient>
<linearGradient id="paint6_linear_1272_263" x1="149.663" y1="126.896" x2="149.663" y2="40.4229" gradientUnits="userSpaceOnUse">
<stop stop-color="#AD7F50"/>
<stop offset="1" stop-color="#FBCF8C"/>
</linearGradient>
<linearGradient id="paint7_linear_1272_263" x1="149.663" y1="126.896" x2="149.663" y2="40.4229" gradientUnits="userSpaceOnUse">
<stop stop-color="#171F03"/>
<stop offset="1" stop-color="#222907"/>
</linearGradient>
<linearGradient id="paint8_linear_1272_263" x1="101.023" y1="103.037" x2="101.023" y2="64.2031" gradientUnits="userSpaceOnUse">
<stop stop-color="#171F03"/>
<stop offset="1" stop-color="#222907"/>
</linearGradient>
<linearGradient id="paint9_linear_1272_263" x1="149.663" y1="107.676" x2="149.663" y2="59.8799" gradientUnits="userSpaceOnUse">
<stop stop-color="#171F03"/>
<stop offset="1" stop-color="#222907"/>
</linearGradient>
<linearGradient id="paint10_linear_1272_263" x1="200.466" y1="103.037" x2="200.466" y2="64.2031" gradientUnits="userSpaceOnUse">
<stop stop-color="#171F03"/>
<stop offset="1" stop-color="#222907"/>
</linearGradient>
</defs>
</svg>
